name C:\Users\u0101727\Documents\MyRepositories\upper-imu-dc\Results\main_tracking\Case_10\FLX01_linearAccelerations_groundFrame.mot
datacolumns 4
datarows 141
range 0.51000000 1.91000000
endheader 
time	radius_imu_x	radius_imu_y	radius_imu_z	
          0.51000000	          1.68240566	         11.52161978	          4.38999189	
          0.52000000	          1.59490878	         10.85961555	          2.64072056	
          0.53000000	          1.45015442	         10.50159255	          1.56091792	
          0.54000000	          1.19935133	         10.28986470	          0.88991117	
          0.55000000	          1.00404062	         10.15014374	          0.12789993	
          0.56000000	          1.23265221	          9.71728724	         -0.90687062	
          0.57000000	          1.28757084	          9.94951670	         -0.58175038	
          0.58000000	          1.33727624	         10.14471767	          0.26283927	
          0.59000000	          1.58668449	         10.19173090	          0.60334726	
          0.60000000	          1.63059197	         10.23065513	          0.82080270	
          0.61000000	          1.51114232	         10.28238370	          1.00139016	
          0.62000000	          1.28895892	         10.35207503	          1.19610146	
          0.63000000	          1.03321881	         10.44100978	          1.38195584	
          0.64000000	          0.78677972	         10.54088328	          1.51243806	
          0.65000000	          0.56583362	         10.63925186	          1.55224643	
          0.66000000	          0.36086022	         10.72426238	          1.50086247	
          0.67000000	          0.14336091	         10.78765992	          1.39329752	
          0.68000000	         -0.12230444	         10.82546748	          1.28292302	
          0.69000000	         -0.46439977	         10.83730572	          1.21880307	
          0.70000000	         -0.89274999	         10.82578031	          1.22996398	
          0.71000000	         -1.39590587	         10.79620707	          1.32188441	
          0.72000000	         -1.94615443	         10.75646242	          1.48230517	
          0.73000000	         -2.50840493	         10.71653989	          1.69027183	
          0.74000000	         -3.04928491	         10.68741209	          1.92394538	
          0.75000000	         -3.54404963	         10.67908790	          2.16543014	
          0.76000000	         -3.97988615	         10.69840410	          2.40270226	
          0.77000000	         -4.35565009	         10.74743774	          2.62978416	
          0.78000000	         -4.67940489	         10.82290537	          2.84649215	
          0.79000000	         -4.96533026	         10.91610205	          3.05811846	
          0.80000000	         -5.23057434	         11.01349182	          3.27401556	
          0.81000000	         -5.49148969	         11.09941646	          3.50389573	
          0.82000000	         -5.75891395	         11.16140605	          3.75224686	
          0.83000000	         -6.03385982	         11.19560028	          4.01302119	
          0.84000000	         -6.30641346	         11.20896366	          4.26739995	
          0.85000000	         -6.55981943	         11.21712107	          4.48672700	
          0.86000000	         -6.77859889	         11.23903215	          4.64040546	
          0.87000000	         -6.95662195	         11.29059241	          4.70572015	
          0.88000000	         -7.10088620	         11.37911030	          4.67515739	
          0.89000000	         -7.22939314	         11.50055099	          4.55774529	
          0.90000000	         -7.36474185	         11.64111557	          4.37358151	
          0.91000000	         -7.52681273	         11.78257267	          4.14403732	
          0.92000000	         -7.72757236	         11.90753732	          3.88249461	
          0.93000000	         -7.96889848	         12.00089689	          3.58958323	
          0.94000000	         -8.24216234	         12.04851744	          3.25286092	
          0.95000000	         -8.52800388	         12.03778114	          2.84860128	
          0.96000000	         -8.79613769	         11.96196465	          2.34541296	
          0.97000000	         -9.00669836	         11.82608091	          1.71241720	
          0.98000000	         -9.11587100	         11.65007017	          0.93328059	
          0.99000000	         -9.08842882	         11.46976263	          0.02388681	
          1.00000000	         -8.91667750	         11.31271105	         -0.96585998	
          1.01000000	         -8.63147931	         11.23216526	         -1.91275485	
          1.02000000	         -8.30110779	         11.24103986	         -2.71728195	
          1.03000000	         -7.99883731	         11.29662827	         -3.31781390	
          1.04000000	         -7.78821136	         11.36370796	         -3.67410309	
          1.05000000	         -7.70485899	         11.39750212	         -3.77400828	
          1.06000000	         -7.77316110	         11.36912666	         -3.62920915	
          1.07000000	         -7.98197997	         11.27833958	         -3.28345989	
          1.08000000	         -8.28673338	         11.14866384	         -2.80234856	
          1.09000000	         -8.63065017	         11.02629172	         -2.28929925	
          1.10000000	         -8.94679135	         10.95177745	         -1.85706220	
          1.11000000	         -9.16986319	         10.95416363	         -1.63113769	
          1.12000000	         -9.24713077	         11.03998119	         -1.70295052	
          1.13000000	         -9.10799264	         11.08099969	         -2.11566302	
          1.14000000	         -8.77371613	         11.11017189	         -2.80960297	
          1.15000000	         -8.29068580	         11.14637228	         -3.69057561	
          1.16000000	         -7.69250703	         11.14706288	         -4.65199987	
          1.17000000	         -7.02033372	         11.09356893	         -5.59720982	
          1.18000000	         -6.30800377	         10.97349076	         -6.45378015	
          1.19000000	         -5.57814616	         10.78655053	         -7.18714653	
          1.20000000	         -4.83869995	         10.54355395	         -7.80739913	
          1.21000000	         -4.08353802	         10.26190730	         -8.36138158	
          1.22000000	         -3.29762103	          9.95787487	         -8.91409843	
          1.23000000	         -2.47057968	          9.64252085	         -9.51635105	
          1.24000000	         -1.58850590	          9.31525110	        -10.17778070	
          1.25000000	         -0.66893071	          9.00008963	        -10.81898083	
          1.26000000	          0.58786562	          8.54259153	        -11.31654128	
          1.27000000	          0.49766079	          8.09289645	        -11.20612596	
          1.28000000	          0.82771741	          9.81982812	        -12.34398566	
          1.29000000	          2.38659216	          9.98011013	        -12.48653790	
          1.30000000	          3.83497688	          9.28147867	        -11.74740508	
          1.31000000	          4.82954382	          7.70818447	        -11.13943563	
          1.32000000	          6.58959838	          6.80391008	        -10.24942754	
          1.33000000	          3.61132591	          8.02384093	         -9.73529558	
          1.34000000	          0.64783974	          9.12673889	         -9.46041006	
          1.35000000	         -1.05216374	          9.95439096	         -9.10853423	
          1.36000000	          0.74007750	          8.99968282	         -7.42874836	
          1.37000000	          3.16152777	          7.87180068	         -5.56314227	
          1.38000000	          2.26209171	          7.93180917	         -5.66846557	
          1.39000000	          0.34067939	          8.85335206	         -6.10119899	
          1.40000000	          1.76422900	          8.45850606	         -5.05797566	
          1.41000000	          2.68861433	          8.33079611	         -4.25561646	
          1.42000000	          1.77432540	          8.81918806	         -4.53503141	
          1.43000000	          1.42129055	          9.08615782	         -4.54983568	
          1.44000000	          1.32164773	          9.13877197	         -4.34804066	
          1.45000000	          1.07302327	          9.23643449	         -4.00422819	
          1.46000000	          0.75767528	          9.35495799	         -3.45765560	
          1.47000000	          0.40009089	          9.47727559	         -2.75767495	
          1.48000000	          0.03777230	          9.59549568	         -1.97992972	
          1.49000000	         -0.29949361	          9.70396829	         -1.20068505	
          1.50000000	         -0.59122622	          9.79745823	         -0.47982781	
          1.51000000	         -0.82529420	          9.87075209	          0.14044557	
          1.52000000	         -0.99712628	          9.92026294	          0.63885546	
          1.53000000	         -1.10992272	          9.94687308	          1.01800160	
          1.54000000	         -1.17141416	          9.95508406	          1.29100849	
          1.55000000	         -1.18920465	          9.94841771	          1.46167077	
          1.56000000	         -1.17004742	          9.92705490	          1.52223324	
          1.57000000	         -1.12226221	          9.89041127	          1.46948308	
          1.58000000	         -1.05632189	          9.84078693	          1.31843566	
          1.59000000	         -0.98166705	          9.78354104	          1.09890374	
          1.60000000	         -0.90395847	          9.72497871	          0.84411710	
          1.61000000	         -0.82781975	          9.67225991	          0.58924846	
          1.62000000	         -0.76156420	          9.63416766	          0.37400815	
          1.63000000	         -0.71642647	          9.61854625	          0.23150569	
          1.64000000	         -0.70042676	          9.62742453	          0.16830851	
          1.65000000	         -0.71273998	          9.65414543	          0.15545150	
          1.66000000	         -0.74311303	          9.68532916	          0.14078137	
          1.67000000	         -0.77772247	          9.70797751	          0.07902690	
          1.68000000	         -0.80808597	          9.71767878	         -0.03772679	
          1.69000000	         -0.83597539	          9.72101457	         -0.17223155	
          1.70000000	         -0.86947595	          9.72927553	         -0.26672986	
          1.71000000	         -0.91341655	          9.74893622	         -0.28218700	
          1.72000000	         -0.96314541	          9.77710630	         -0.22050026	
          1.73000000	         -1.00558690	          9.80368991	         -0.11868307	
          1.74000000	         -1.02546559	          9.81729655	         -0.02480806	
          1.75000000	         -1.01434327	          9.81275363	          0.03325059	
          1.76000000	         -0.97745697	          9.79628934	          0.06835933	
          1.77000000	         -0.93169791	          9.78338483	          0.12440303	
          1.78000000	         -0.89603173	          9.79068245	          0.24353774	
          1.79000000	         -0.88302523	          9.82854130	          0.43955330	
          1.80000000	         -0.89591351	          9.89732422	          0.69240246	
          1.81000000	         -0.93008053	          9.98733688	          0.96036109	
          1.82000000	         -0.97776927	         10.08338985	          1.20256387	
          1.83000000	         -1.03244326	         10.17150070	          1.39637769	
          1.84000000	         -1.08806877	         10.24108470	          1.53425651	
          1.85000000	         -1.13573278	         10.28208865	          1.60907369	
          1.86000000	         -1.16428203	         10.28401816	          1.60969726	
          1.87000000	         -1.16539563	         10.24000014	          1.53029549	
          1.88000000	         -1.13836662	         10.15214372	          1.38110009	
          1.89000000	         -1.09062450	         10.03284919	          1.18937069	
          1.90000000	         -1.03230059	          9.89923759	          0.98667823	
          1.91000000	         -0.96939040	          9.76554832	          0.79407149	
